<svg width="149" height="40" viewBox="0 0 149 40" fill="none" xmlns="http://www.w3.org/2000/svg">
<path d="M58.5943 17.3896C58.2477 16.7511 57.7459 16.2676 57.0891 15.9392C56.4505 15.5926 55.6934 15.4192 54.8177 15.4192C53.3034 15.4192 52.0902 15.921 51.1779 16.9244C50.2656 17.9096 49.8096 19.2324 49.8096 20.8926C49.8096 22.6623 50.284 24.0489 51.2326 25.0523C52.1996 26.0375 53.5223 26.5301 55.2008 26.5301C56.3502 26.5301 57.3172 26.2383 58.1017 25.6544C58.9045 25.0705 59.4882 24.2313 59.8532 23.1367H53.9146V19.6885H64.095V24.0398C63.7484 25.2074 63.1554 26.293 62.3162 27.2964C61.4952 28.2998 60.4461 29.1118 59.169 29.7321C57.8919 30.3523 56.4505 30.6625 54.8451 30.6625C52.9476 30.6625 51.2509 30.252 49.7548 29.431C48.277 28.5918 47.1185 27.4332 46.2793 25.9554C45.4583 24.4776 45.0478 22.7901 45.0478 20.8926C45.0478 18.9951 45.4583 17.3075 46.2793 15.8297C47.1185 14.3337 48.277 13.1752 49.7548 12.3542C51.2326 11.515 52.9202 11.0953 54.8177 11.0953C57.1165 11.0953 59.0504 11.6518 60.6194 12.7647C62.2067 13.8775 63.2558 15.4192 63.7666 17.3896H58.5943ZM71.3669 17.8001C71.9142 16.9609 72.5984 16.3041 73.4194 15.8297C74.2404 15.3371 75.1526 15.0908 76.1561 15.0908V20.0442H74.8698C73.7022 20.0442 72.8265 20.2997 72.2426 20.8105C71.6588 21.3031 71.3669 22.1788 71.3669 23.4377V30.5257H66.6872V15.255H71.3669V17.8001ZM85.344 30.7446C83.8479 30.7446 82.4979 30.4254 81.2937 29.7868C80.1078 29.1482 79.1682 28.236 78.475 27.0501C77.7999 25.8642 77.4624 24.4776 77.4624 22.8904C77.4624 21.3213 77.809 19.9439 78.5023 18.758C79.1956 17.5538 80.1443 16.6325 81.3485 15.9939C82.5526 15.3554 83.9026 15.0361 85.3988 15.0361C86.8948 15.0361 88.2449 15.3554 89.449 15.9939C90.6532 16.6325 91.6018 17.5538 92.2952 18.758C92.9884 19.9439 93.3351 21.3213 93.3351 22.8904C93.3351 24.4594 92.9793 25.846 92.2678 27.0501C91.5745 28.236 90.6166 29.1482 89.3943 29.7868C88.1902 30.4254 86.84 30.7446 85.344 30.7446ZM85.344 26.6943C86.238 26.6943 86.9951 26.3659 87.6155 25.7091C88.2539 25.0523 88.5733 24.1127 88.5733 22.8904C88.5733 21.668 88.2631 20.7284 87.6428 20.0716C87.0408 19.4148 86.2927 19.0864 85.3988 19.0864C84.4865 19.0864 83.7294 19.4148 83.1273 20.0716C82.5252 20.7102 82.2242 21.6497 82.2242 22.8904C82.2242 24.1127 82.5161 25.0523 83.0999 25.7091C83.702 26.3659 84.45 26.6943 85.344 26.6943ZM117.738 15.255L113.606 30.5257H108.433L106.026 20.6189L103.535 30.5257H98.3903L94.2305 15.255H98.9102L101.072 26.1744L103.645 15.255H108.598L111.197 26.1196L113.332 15.255H117.738ZM127.186 19.1411H124.668V30.5257H119.988V19.1411H118.292V15.255H119.988V14.8172C119.988 12.938 120.526 11.515 121.603 10.548C122.68 9.56276 124.258 9.07016 126.337 9.07016C126.684 9.07016 126.94 9.07929 127.104 9.09753V13.0657C126.21 13.011 125.581 13.1386 125.215 13.4488C124.85 13.759 124.668 14.3154 124.668 15.1182V15.255H127.186V19.1411ZM144.984 15.255L135.405 37.7779H130.37L133.873 30.0057L127.661 15.255H132.888L136.418 24.806L139.921 15.255H144.984Z" fill="white"/>
<path d="M24.1459 12.632C24.1459 8.5628 27.4446 5.26407 31.5138 5.26407H38.8818V12.632C38.8818 16.7013 35.5831 20 31.5138 20C27.4446 20 24.1459 16.7013 24.1459 12.632Z" fill="#FF6D35"/>
<path d="M31.5138 37.6771C27.4445 37.6771 24.1458 34.3784 24.1458 30.3092V22.9412H31.5138C35.583 22.9412 38.8817 26.2399 38.8817 30.3092C38.8817 34.3784 35.583 37.6771 31.5138 37.6771Z" fill="#5CC97B"/>
<path d="M21.8242 20.6522C21.8242 12.4754 15.698 5.84695 8.14087 5.84695V30.0214C8.14087 34.1097 11.204 37.424 14.9826 37.424C18.7612 37.424 21.8242 34.1097 21.8242 30.0214V20.6522Z" fill="#3D96F4"/>
</svg>
